<svg viewBox="0 0 200 43.81" version="1.1" style="enable-background:new 0 0 200 43.81" y="0" x="0" id="Layer_1" xml:space="preserve" xmlns="http://www.w3.org/2000/svg"><style>.st0{fill:#1e1e1c}.st1{fill:#e20717}</style><path class="st0" d="M83.03 30.62c0 .09 0 .17-.01.23-.01.07-.02.12-.03.16-.02.04-.03.07-.06.09-.02.02-.05.03-.07.03H81.4v4.94c0 .03-.01.06-.03.09-.02.02-.05.05-.1.06-.04.02-.11.03-.18.04-.08.01-.17.01-.29.01-.11 0-.21 0-.29-.01a.604.604 0 0 1-.18-.04c-.04-.02-.08-.04-.1-.06-.02-.02-.03-.05-.03-.09v-4.94h-1.45c-.03 0-.06-.01-.08-.03a.193.193 0 0 1-.05-.09.35.35 0 0 1-.03-.16c-.01-.06-.01-.14-.01-.23 0-.1 0-.18.01-.24.01-.07.02-.12.03-.16.01-.04.03-.07.05-.08.02-.02.05-.03.08-.03h4.09c.03 0 .05.01.07.03.02.02.04.05.06.08.02.04.03.09.03.16.03.07.03.15.03.24zM88.64 36.07c0 .03-.01.06-.03.09-.02.02-.05.05-.1.06-.04.02-.1.03-.18.04-.07.01-.17.01-.28.01-.12 0-.21 0-.29-.01a.604.604 0 0 1-.18-.04c-.04-.02-.08-.04-.09-.06-.02-.02-.03-.05-.03-.09v-2.48h-2.17v2.48c0 .03-.01.06-.03.09-.02.02-.05.05-.09.06-.05.02-.1.03-.18.04-.08.01-.17.01-.29.01-.11 0-.21 0-.28-.01a.604.604 0 0 1-.18-.04c-.04-.02-.08-.04-.1-.06-.02-.02-.03-.05-.03-.09v-5.79c0-.03.01-.06.03-.08.02-.03.05-.05.1-.06.04-.02.11-.03.18-.04.08-.01.17-.01.28-.01.12 0 .21 0 .29.01.07.01.13.02.18.04.04.02.08.04.09.06.02.02.03.05.03.08v2.25h2.17v-2.25c0-.03.01-.06.03-.08.02-.03.05-.05.09-.06.04-.02.1-.03.18-.04.08-.01.17-.01.29-.01.11 0 .21 0 .28.01.07.01.13.02.18.04.04.02.08.04.1.06.02.02.03.05.03.08v5.79zM92.99 35.75c0 .09 0 .17-.01.23s-.02.11-.03.15c-.02.04-.03.07-.06.08-.02.02-.05.03-.07.03H89.9c-.1 0-.18-.03-.25-.09s-.1-.16-.1-.3v-5.34c0-.14.03-.24.1-.3s.15-.09.25-.09h2.9c.03 0 .05.01.07.02.02.02.04.04.05.08.01.04.03.09.03.15.01.06.01.14.01.23s0 .16-.01.23c-.01.06-.02.11-.03.15-.02.04-.03.07-.05.08a.09.09 0 0 1-.07.03h-2.07v1.5h1.75c.03 0 .05.01.07.03.02.02.04.04.06.08.02.04.03.09.03.15.01.06.01.14.01.22 0 .09 0 .17-.01.23s-.02.11-.03.14c-.01.04-.03.06-.06.08-.02.02-.05.02-.07.02h-1.75v1.73h2.09c.03 0 .05.01.07.03.02.02.04.04.06.08.01.04.03.09.03.15.01.06.01.13.01.22z"></path><path class="st1" d="M97.33 36.07c0 .03-.01.06-.03.09-.02.02-.05.05-.1.06-.04.02-.1.03-.18.04-.07.01-.17.01-.29.01-.11 0-.21 0-.29-.01a.604.604 0 0 1-.18-.04c-.04-.02-.08-.04-.1-.06-.02-.02-.03-.05-.03-.09v-5.79c0-.03.01-.06.03-.08.02-.03.05-.05.1-.06.05-.02.11-.03.18-.04.07-.01.17-.01.28-.01.12 0 .21 0 .29.01.08.01.14.02.18.04.05.02.08.04.1.06.02.02.03.05.03.08v5.79zM103.04 35.81c0 .07-.01.14-.04.19-.02.06-.06.1-.1.14-.04.04-.09.07-.14.08-.06.02-.11.03-.17.03h-.5c-.11 0-.2-.01-.27-.03a.445.445 0 0 1-.21-.12c-.06-.06-.13-.14-.19-.24-.06-.1-.13-.23-.2-.39l-1.44-2.87c-.08-.17-.17-.35-.26-.55-.09-.2-.16-.39-.23-.58h-.01l.03.68c.01.23.01.46.01.7v3.21c0 .03-.01.06-.02.08-.02.03-.05.05-.09.06-.04.02-.1.03-.16.04-.07.01-.16.01-.27.01-.1 0-.19 0-.26-.01a.53.53 0 0 1-.16-.04c-.04-.02-.07-.04-.08-.06-.02-.03-.02-.05-.02-.08v-5.51c0-.15.04-.26.12-.33.08-.07.18-.11.3-.11h.63c.11 0 .21.01.29.03.08.02.15.05.21.1s.12.11.17.2c.05.08.11.19.17.31l1.13 2.24c.07.14.13.27.19.4s.13.26.19.39.12.26.17.39c.06.13.11.25.17.38-.01-.22-.02-.45-.02-.69 0-.24-.01-.47-.01-.69V30.3c0-.03.01-.06.03-.09.02-.02.05-.05.09-.07.04-.02.1-.03.17-.04.07-.01.16-.01.27-.01.1 0 .19 0 .25.01.07.01.12.02.16.04.04.02.06.04.08.07a.2.2 0 0 1 .02.09v5.51zM108.74 35.81c0 .07-.01.14-.04.19-.02.06-.06.1-.1.14-.04.04-.09.07-.14.08-.06.02-.11.03-.17.03h-.5c-.1 0-.19-.01-.27-.03a.445.445 0 0 1-.21-.12c-.06-.06-.13-.14-.19-.24-.06-.1-.13-.23-.2-.39l-1.45-2.87c-.08-.17-.17-.35-.25-.55-.09-.2-.16-.39-.23-.58h-.01l.03.68c.01.23.01.46.01.7v3.21c0 .03-.01.06-.02.08-.02.03-.04.05-.09.06a.53.53 0 0 1-.16.04c-.07.01-.16.01-.26.01-.11 0-.19 0-.26-.01a.53.53 0 0 1-.16-.04c-.04-.02-.07-.04-.08-.06-.02-.03-.02-.05-.02-.08v-5.51c0-.15.04-.26.12-.33.08-.07.18-.11.3-.11h.63c.11 0 .21.01.29.03.08.02.15.05.21.1s.12.11.17.2c.05.08.11.19.17.31l1.13 2.24c.07.14.13.27.2.4.06.13.13.26.19.39s.12.26.17.39c.06.13.11.25.17.38-.01-.22-.02-.45-.02-.69 0-.24-.01-.47-.01-.69V30.3c0-.03.01-.06.03-.09.02-.02.05-.05.09-.07.04-.02.1-.03.17-.04.07-.01.16-.01.26-.01s.19 0 .26.01.12.02.16.04c.04.02.06.04.08.07.02.02.02.05.02.09v5.51zM115.06 33.11c0 .51-.06.96-.18 1.36-.12.4-.3.74-.53 1.02-.24.28-.53.49-.88.64-.35.15-.75.22-1.21.22-.45 0-.85-.06-1.18-.19-.34-.12-.62-.32-.84-.57a2.52 2.52 0 0 1-.5-.98c-.11-.39-.17-.86-.17-1.4 0-.5.06-.94.18-1.34.12-.4.3-.73.53-1.01.24-.28.53-.49.88-.64.35-.15.75-.22 1.21-.22.44 0 .83.06 1.16.18.34.12.62.31.84.57.23.26.4.58.51.97.13.4.18.86.18 1.39zm-1.24.06c0-.32-.02-.61-.07-.88a2.18 2.18 0 0 0-.24-.68c-.11-.19-.27-.33-.46-.44-.19-.1-.43-.15-.72-.15s-.53.06-.73.17c-.19.12-.35.27-.47.46s-.2.42-.25.68c-.05.26-.07.53-.07.82 0 .33.02.64.07.9.05.27.13.49.24.68.11.19.27.33.46.43.19.1.43.15.72.15s.53-.06.73-.17c.19-.11.35-.27.47-.46.12-.2.2-.42.25-.68.05-.26.07-.53.07-.83zM118.67 36.02c-.02.05-.03.1-.06.13-.02.03-.06.06-.12.08-.05.02-.13.03-.22.03s-.21.01-.36.01h-.31c-.09 0-.16-.01-.22-.01-.06-.01-.11-.02-.15-.03a.193.193 0 0 1-.09-.05c-.03-.02-.04-.04-.06-.07-.01-.03-.03-.06-.04-.1l-1.73-5.43a.831.831 0 0 1-.06-.27c-.01-.07.01-.12.04-.15.04-.03.1-.05.19-.06.09-.01.22-.01.38-.01.14 0 .25 0 .32.01.08.01.14.02.18.03.04.02.07.04.09.07.02.03.03.07.05.12l1.41 4.73 1.39-4.7c.01-.05.03-.1.04-.13.02-.03.05-.06.09-.08.04-.02.11-.03.19-.04.08-.01.19-.01.33-.01s.25 0 .32.01c.08.01.13.03.16.07.03.04.04.09.03.15-.01.07-.03.15-.07.26l-1.72 5.44zM125 35.78c.04.11.06.2.07.27.01.07 0 .12-.04.15-.03.03-.09.05-.18.06-.08.01-.2.01-.35.01-.15 0-.27 0-.36-.01-.09-.01-.15-.01-.2-.03-.04-.01-.08-.03-.09-.06-.02-.02-.03-.06-.04-.1l-.39-1.23h-2.18l-.37 1.2a.37.37 0 0 1-.05.11c-.02.03-.05.05-.09.07-.04.02-.11.03-.18.04-.08.01-.18.01-.31.01-.14 0-.25 0-.32-.01-.08-.01-.13-.03-.16-.07-.03-.04-.04-.09-.03-.15.01-.07.03-.15.07-.27l1.79-5.44c.02-.05.04-.1.06-.13.02-.03.06-.06.11-.08.05-.02.13-.03.22-.03s.21-.01.37-.01c.18 0 .32 0 .42.01.1 0 .19.02.24.03.06.02.1.04.13.08.03.03.05.08.06.14l1.8 5.44zm-2.66-4.5-.83 2.6h1.65l-.82-2.6zM128.8 30.62c0 .09 0 .17-.01.23-.01.07-.02.12-.03.16-.01.04-.03.07-.06.09-.02.02-.05.03-.07.03h-1.45v4.94c0 .03-.01.06-.03.09-.02.02-.05.05-.1.06-.04.02-.11.03-.18.04-.08.01-.17.01-.28.01s-.21 0-.29-.01a.604.604 0 0 1-.18-.04c-.04-.02-.08-.04-.1-.06-.02-.02-.03-.05-.03-.09v-4.94h-1.45c-.03 0-.06-.01-.08-.03a.193.193 0 0 1-.05-.09.35.35 0 0 1-.03-.16c-.01-.06-.01-.14-.01-.23 0-.1 0-.18.01-.24.01-.07.02-.12.03-.16.01-.04.03-.07.05-.08.02-.02.05-.03.08-.03h4.09c.03 0 .05.01.07.03.02.02.04.05.06.08.02.04.03.09.03.16s.01.15.01.24zM131.05 36.07c0 .03-.01.06-.03.09-.02.02-.05.05-.1.06-.05.02-.1.03-.18.04-.07.01-.17.01-.29.01-.11 0-.21 0-.28-.01a.604.604 0 0 1-.18-.04c-.04-.02-.08-.04-.1-.06-.02-.02-.03-.05-.03-.09v-5.79c0-.03.01-.06.03-.08.02-.03.05-.05.1-.06.05-.02.11-.03.18-.04.07-.01.17-.01.28-.01.12 0 .21 0 .29.01.07.01.13.02.18.04.04.02.08.04.1.06.02.02.03.05.03.08v5.79zM135.41 36.02c-.02.05-.03.1-.06.13-.02.03-.06.06-.12.08-.05.02-.13.03-.22.03s-.21.01-.36.01h-.31c-.09 0-.16-.01-.22-.01-.06-.01-.11-.02-.15-.03a.193.193 0 0 1-.09-.05.134.134 0 0 1-.06-.07c-.01-.03-.03-.06-.04-.1l-1.73-5.43c-.04-.11-.06-.2-.07-.27-.01-.07.01-.12.05-.15s.1-.05.19-.06c.09-.01.22-.01.38-.01.14 0 .25 0 .32.01.08.01.14.02.18.03.04.02.07.04.09.07.02.03.03.07.05.12l1.41 4.73 1.39-4.7c.01-.05.03-.1.04-.13.02-.03.05-.06.09-.08.04-.02.11-.03.19-.04.08-.01.19-.01.33-.01s.24 0 .32.01c.08.01.13.03.16.07.03.04.04.09.03.15-.01.07-.03.15-.07.26l-1.72 5.44zM141.41 35.75c0 .09 0 .17-.01.23s-.02.11-.03.15c-.02.04-.03.07-.06.08-.02.02-.05.03-.07.03h-2.92c-.1 0-.18-.03-.25-.09s-.1-.16-.1-.3v-5.34c0-.14.03-.24.1-.3s.15-.09.25-.09h2.9c.03 0 .05.01.07.02.02.02.04.04.05.08.01.04.03.09.03.15.01.06.01.14.01.23s0 .16-.01.23c-.01.06-.02.11-.03.15-.02.04-.03.07-.05.08-.02.02-.05.03-.07.03h-2.07v1.5h1.75c.03 0 .05.01.07.03.02.02.04.04.06.08.01.04.03.09.03.15.01.06.01.14.01.22 0 .09 0 .17-.01.23s-.02.11-.03.14c-.02.04-.03.06-.06.08-.02.02-.05.02-.07.02h-1.75v1.73h2.09c.03 0 .05.01.07.03.02.02.04.04.06.08.01.04.03.09.03.15.01.06.01.13.01.22z"></path><path class="st0" d="M148.99 31.91c0 .35-.05.66-.16.93s-.27.5-.48.68c-.21.18-.46.32-.77.42-.3.1-.66.14-1.07.14h-.52v1.99c0 .03-.01.06-.03.09-.02.03-.06.05-.1.06-.05.02-.11.03-.19.04-.08.01-.18.01-.31.01-.12 0-.22-.01-.31-.01a.686.686 0 0 1-.19-.04.289.289 0 0 1-.1-.06.14.14 0 0 1-.03-.09v-5.6c0-.15.04-.26.12-.34.08-.08.18-.11.31-.11h1.47c.15 0 .29.01.42.02s.29.04.48.07c.19.04.37.11.56.2.19.1.35.23.49.38.13.15.24.33.31.53.06.21.1.44.1.69zm-1.33.09c0-.22-.04-.4-.11-.54-.08-.14-.17-.25-.28-.31a.932.932 0 0 0-.35-.13 2.34 2.34 0 0 0-.38-.03H146v2.11h.57c.2 0 .37-.03.51-.08a.73.73 0 0 0 .33-.23c.09-.1.15-.21.2-.35.03-.13.05-.28.05-.44zM155.78 33.06c0 .52-.06.98-.19 1.39-.13.41-.32.75-.57 1.04-.25.28-.57.5-.94.65-.37.15-.81.22-1.3.22-.48 0-.91-.06-1.27-.19s-.66-.32-.9-.58c-.24-.26-.42-.59-.54-.99-.12-.4-.18-.88-.18-1.42 0-.5.06-.96.19-1.36.13-.4.32-.74.57-1.03.25-.28.57-.5.94-.65.37-.15.81-.23 1.3-.23.47 0 .89.06 1.25.19s.66.32.9.58c.24.26.43.59.55.98.13.39.19.86.19 1.4zm-1.33.07c0-.33-.03-.62-.08-.89s-.14-.5-.26-.69c-.12-.19-.29-.34-.49-.44-.21-.1-.46-.16-.77-.16s-.57.06-.78.18c-.21.12-.38.27-.5.47-.13.2-.22.42-.27.69-.05.26-.08.54-.08.83 0 .34.03.65.08.92s.14.5.26.69c.12.19.29.34.49.44.2.1.46.15.77.15s.57-.06.78-.17c.21-.12.38-.27.51-.47.13-.2.22-.43.27-.69.05-.29.07-.57.07-.86zM160.28 35.71c0 .1 0 .18-.01.24a.53.53 0 0 1-.04.16c-.02.04-.04.07-.06.09-.02.02-.05.03-.08.03h-2.85c-.11 0-.19-.03-.27-.09-.07-.06-.11-.16-.11-.31v-5.65c0-.03.01-.06.03-.09.02-.03.06-.05.1-.06.05-.02.11-.03.19-.04.08-.01.18-.01.31-.01.12 0 .23 0 .31.01.08.01.14.02.19.04.05.02.08.04.1.06.02.03.03.06.03.09v5.01h1.96c.03 0 .06.01.08.03.02.02.04.05.06.09.02.04.03.09.04.16.02.07.02.15.02.24zM162.69 33.88v2.19c0 .03-.01.06-.03.09-.02.03-.06.05-.1.06-.05.02-.11.03-.19.04-.08.01-.18.01-.3.01-.13 0-.23-.01-.31-.01a.878.878 0 0 1-.2-.04.289.289 0 0 1-.1-.06.14.14 0 0 1-.03-.09v-2.19l-1.7-3.39c-.06-.12-.1-.21-.12-.28-.02-.07-.01-.12.03-.15a.43.43 0 0 1 .2-.06c.1-.01.24-.01.41-.01.15 0 .27 0 .35.01.09.01.16.02.21.04.05.02.09.04.11.07.02.03.05.07.07.11l.69 1.53c.07.15.13.3.2.47.07.16.13.33.2.51h.01c.06-.17.12-.34.19-.5.06-.16.13-.32.19-.47l.68-1.52c.02-.05.04-.09.06-.12.02-.03.06-.06.11-.07.05-.02.11-.03.2-.04.08-.01.19-.01.33-.01.18 0 .32 0 .43.01.1.01.17.03.21.06.04.03.05.08.03.15-.02.07-.06.16-.12.27l-1.71 3.39zM170.05 30.54c0 .09 0 .17-.01.24a.53.53 0 0 1-.04.16c-.02.04-.04.07-.06.09-.02.02-.05.03-.08.03h-1.56v5.02c0 .03-.01.06-.03.09-.02.03-.06.05-.1.06-.05.02-.11.03-.19.04-.08.01-.18.01-.31.01-.12 0-.22-.01-.31-.01a.686.686 0 0 1-.19-.04.289.289 0 0 1-.1-.06.14.14 0 0 1-.03-.09v-5.02h-1.56c-.03 0-.06-.01-.08-.03a.349.349 0 0 1-.06-.09.53.53 0 0 1-.04-.16c-.01-.07-.01-.14-.01-.24 0-.1 0-.18.01-.25a.53.53 0 0 1 .04-.16c.02-.04.04-.07.06-.09.02-.02.05-.03.08-.03h4.39c.03 0 .06.01.08.03.02.02.04.05.06.09.02.04.03.09.04.16-.01.07 0 .15 0 .25zM174.69 35.75c0 .09 0 .17-.01.23s-.02.11-.04.15c-.02.04-.04.07-.06.08-.02.02-.05.03-.08.03h-3.13c-.11 0-.19-.03-.27-.09-.07-.06-.11-.16-.11-.31v-5.42c0-.14.04-.24.11-.31a.4.4 0 0 1 .27-.09h3.11c.03 0 .05.01.08.02.02.02.04.04.06.08.02.04.03.09.04.15.01.06.01.14.01.24 0 .09 0 .17-.01.23s-.02.11-.04.15c-.02.04-.04.07-.06.08-.02.02-.05.03-.08.03h-2.22v1.52h1.88c.03 0 .06.01.08.03.02.02.04.04.06.08.02.04.03.09.04.15.01.06.01.14.01.23s0 .17-.01.23-.02.11-.04.15c-.02.04-.04.06-.06.08-.02.02-.05.02-.08.02h-1.88v1.76h2.24c.03 0 .06.01.08.03.02.02.04.05.06.08.02.04.03.09.04.15 0 .07.01.14.01.24zM180.17 35.3c0 .08 0 .15-.01.2 0 .06-.01.1-.02.15a.3.3 0 0 1-.04.1c-.02.03-.04.06-.08.1-.04.04-.1.08-.2.14a2.633 2.633 0 0 1-.87.3c-.19.04-.39.05-.61.05-.43 0-.81-.07-1.15-.2-.34-.13-.63-.33-.88-.59-.24-.26-.42-.59-.55-.98-.13-.39-.19-.85-.19-1.37 0-.53.07-1 .21-1.41.14-.41.34-.76.59-1.03.25-.28.56-.49.91-.63s.74-.22 1.17-.22c.17 0 .34.01.5.04.16.03.31.07.44.11.14.05.26.1.37.16a.806.806 0 0 1 .32.27c.02.03.03.07.04.11.01.05.02.1.02.16s.01.14.01.23c0 .1 0 .18-.01.25s-.02.12-.03.16c-.02.04-.04.07-.06.09-.02.02-.05.03-.08.03-.05 0-.11-.03-.18-.08-.07-.06-.17-.12-.29-.19-.12-.07-.26-.13-.42-.19-.16-.06-.35-.08-.58-.08-.25 0-.47.05-.66.15-.19.1-.36.25-.5.43-.14.19-.24.41-.31.68-.07.27-.11.57-.11.9 0 .37.04.68.11.95.08.27.18.49.32.66.14.17.31.3.5.39.2.09.42.13.67.13a1.981 1.981 0 0 0 1-.26c.12-.06.21-.12.29-.17.08-.05.13-.08.18-.08.03 0 .06.01.08.02.02.01.04.04.05.08.01.04.02.09.03.16.02.07.02.16.02.28zM185.96 36.07c0 .03-.01.06-.03.09-.02.03-.06.05-.1.06-.05.02-.11.03-.19.04-.08.01-.18.01-.3.01-.13 0-.23-.01-.31-.01a.686.686 0 0 1-.19-.04.289.289 0 0 1-.1-.06.14.14 0 0 1-.03-.09v-2.52h-2.33v2.52c0 .03-.01.06-.03.09-.02.03-.05.05-.1.06-.05.02-.11.03-.19.04-.08.01-.18.01-.31.01-.12 0-.22-.01-.31-.01a.686.686 0 0 1-.19-.04.289.289 0 0 1-.1-.06.14.14 0 0 1-.03-.09v-5.88c0-.03.01-.06.03-.09.02-.03.06-.05.1-.06.05-.02.11-.03.19-.04.08-.01.18-.01.31-.01.12 0 .23 0 .31.01.08.01.14.02.19.04.05.02.08.04.1.06.02.03.03.06.03.09v2.28h2.33v-2.28c0-.03.01-.06.03-.09.02-.03.05-.05.1-.06.05-.02.11-.03.19-.04.08-.01.18-.01.31-.01.12 0 .22 0 .3.01.08.01.14.02.19.04.05.02.08.04.1.06.02.03.03.06.03.09v5.88zM192.07 35.8a.448.448 0 0 1-.14.34c-.04.04-.09.07-.15.08-.06.02-.12.03-.18.03h-.54c-.11 0-.21-.01-.29-.03a.567.567 0 0 1-.23-.12.98.98 0 0 1-.2-.24c-.06-.1-.14-.23-.22-.39l-1.55-2.91a9.88 9.88 0 0 1-.27-.56c-.09-.2-.18-.4-.25-.58h-.01l.03.69c.01.23.01.47.01.71v3.26c0 .03-.01.06-.03.09-.02.03-.05.05-.09.07-.04.02-.1.03-.18.04-.07.01-.17.01-.28.01-.11 0-.2-.01-.28-.01a.607.607 0 0 1-.17-.04.218.218 0 0 1-.09-.07c-.02-.03-.02-.05-.02-.09v-5.59c0-.15.04-.26.13-.34.09-.08.2-.11.33-.11h.68c.12 0 .22.01.31.03.08.02.16.06.22.1.07.05.13.12.18.2.06.09.12.19.18.32l1.21 2.28c.07.14.14.27.21.41.07.13.14.27.2.4s.13.26.19.39l.18.39c-.01-.22-.02-.46-.02-.7s-.01-.48-.01-.7v-2.92c0-.03.01-.06.03-.09.02-.03.05-.05.1-.07.04-.02.1-.03.18-.04.07-.04.16-.04.28-.04.11 0 .2 0 .27.01s.13.02.17.04c.04.02.07.04.08.07.02.03.02.06.02.09v5.59zM194.32 36.07c0 .03-.01.06-.03.09-.02.03-.06.05-.1.06-.05.02-.11.03-.19.04-.08.01-.18.01-.31.01-.12 0-.22-.01-.31-.01a.686.686 0 0 1-.19-.04.289.289 0 0 1-.1-.06.14.14 0 0 1-.03-.09v-5.88c0-.03.01-.06.03-.09.02-.03.06-.05.11-.06.05-.02.12-.03.19-.04.08-.01.18-.01.3-.01s.23 0 .31.01c.08.01.14.02.19.04.05.02.08.04.1.06.02.03.03.06.03.09v5.88zM200 35.3c0 .08 0 .15-.01.2 0 .06-.01.1-.02.15a.3.3 0 0 1-.04.1c-.02.03-.04.06-.08.1-.04.04-.1.08-.2.14a2.633 2.633 0 0 1-.87.3c-.19.04-.39.05-.61.05-.43 0-.81-.07-1.15-.2-.34-.13-.63-.33-.88-.59-.24-.26-.42-.59-.55-.98-.13-.39-.19-.85-.19-1.37 0-.53.07-1 .21-1.41.14-.41.34-.76.59-1.03.25-.28.56-.49.91-.63s.74-.22 1.17-.22c.17 0 .34.01.5.04.16.03.31.07.45.11.14.05.26.1.37.16a.806.806 0 0 1 .32.27c.02.03.03.07.04.11.01.05.02.1.02.16s.01.14.01.23c0 .1 0 .18-.01.25s-.02.12-.03.16c-.02.04-.04.07-.06.09-.02.02-.05.03-.08.03-.05 0-.11-.03-.18-.08-.07-.06-.17-.12-.29-.19-.12-.07-.26-.13-.42-.19-.16-.06-.36-.08-.58-.08-.25 0-.47.05-.66.15-.19.1-.36.25-.5.43-.14.19-.24.41-.31.68-.07.27-.11.57-.11.9 0 .37.04.68.11.95.07.27.18.49.32.66.14.17.31.3.5.39.2.09.42.13.67.13a1.981 1.981 0 0 0 1-.26c.12-.06.21-.12.29-.17.08-.05.13-.08.18-.08.03 0 .06.01.08.02.02.01.04.04.05.08.01.04.02.09.03.16.01.07.01.16.01.28z"></path><path class="st1" d="m92.26 43.81 3.86-4.02h44.45z"></path><path class="st0" d="M94.51 23.2c0 .26-.04.49-.12.7-.08.2-.19.37-.32.51-.14.14-.3.23-.48.3-.19.06-.37.09-.57.09h-1.69c-.35 0-.66-.04-.91-.12-.26-.08-.49-.22-.71-.43a3.54 3.54 0 0 1-.63-.85c-.2-.36-.43-.82-.68-1.38l-4.86-10.26c-.28-.61-.57-1.27-.86-1.98-.29-.71-.55-1.39-.78-2.06h-.03a100.48 100.48 0 0 1 .12 4.93v11.48c0 .11-.03.21-.08.31-.06.09-.15.17-.29.23-.14.06-.32.11-.55.14-.23.03-.53.05-.89.05-.35 0-.64-.02-.88-.05-.23-.03-.41-.08-.54-.14a.571.571 0 0 1-.27-.23.62.62 0 0 1-.08-.31V4.41c0-.53.14-.93.41-1.2.28-.26.62-.4 1.02-.4h2.13c.38 0 .7.04.97.11.26.07.5.19.7.36.21.17.4.4.58.7.18.3.37.67.56 1.11l3.8 8.02c.22.49.44.96.66 1.43.22.47.42.94.63 1.41.2.47.4.93.59 1.38.19.45.38.9.56 1.36h.02c-.03-.79-.05-1.62-.07-2.47-.02-.86-.02-1.68-.02-2.46V3.48c0-.11.03-.21.09-.31.06-.09.16-.17.3-.24.14-.07.33-.12.56-.14.23-.03.53-.04.89-.04.34 0 .63.01.86.04.23.03.41.08.54.14.13.07.21.15.26.24.05.09.08.19.08.31V23.2zM113.83 23.1c.12.41.2.73.23.97s-.01.41-.12.53c-.11.12-.31.19-.59.22-.28.03-.67.04-1.16.04-.51 0-.91-.01-1.2-.03-.29-.02-.51-.05-.66-.1-.15-.05-.26-.12-.32-.21s-.11-.21-.15-.36l-1.31-4.41h-7.33l-1.24 4.29c-.04.16-.09.29-.16.4-.07.11-.17.19-.32.25s-.35.1-.62.13c-.27.02-.62.03-1.05.03-.46 0-.83-.02-1.09-.05-.26-.03-.44-.12-.54-.25-.1-.13-.14-.31-.11-.55.03-.24.11-.55.23-.95l6.02-19.46c.06-.19.13-.35.21-.47.08-.12.21-.21.38-.27.18-.06.42-.1.73-.12.31-.02.72-.03 1.24-.03.59 0 1.07.01 1.42.03.35.02.63.06.82.12.2.06.34.16.42.28.09.12.16.29.22.51l6.05 19.46zm-8.96-16.09h-.02l-2.76 9.33h5.54l-2.76-9.33zM131.74 23.2c0 .26-.04.49-.12.7-.08.2-.19.37-.32.51-.14.14-.3.23-.48.3-.19.06-.37.09-.57.09h-1.69c-.35 0-.66-.04-.91-.12-.26-.08-.49-.22-.71-.43-.22-.21-.42-.49-.63-.85-.2-.36-.43-.82-.68-1.38l-4.86-10.26a50.602 50.602 0 0 1-1.65-4.04h-.03a100.48 100.48 0 0 1 .12 4.93v11.48c0 .11-.03.21-.08.31-.06.09-.15.17-.29.23-.14.06-.32.11-.55.14-.23.03-.53.05-.89.05-.35 0-.64-.02-.87-.05-.23-.03-.41-.08-.54-.14a.571.571 0 0 1-.27-.23.62.62 0 0 1-.08-.31V4.41c0-.53.14-.93.41-1.2.28-.26.62-.4 1.02-.4h2.13c.38 0 .7.04.97.11.26.07.5.19.7.36.21.17.4.4.58.7.18.3.37.67.56 1.11l3.8 8.02c.22.49.44.96.66 1.43.22.47.42.94.63 1.41.2.47.4.93.59 1.38.19.45.38.9.56 1.36h.01c-.03-.79-.05-1.62-.07-2.47-.02-.86-.02-1.68-.02-2.46V3.48c0-.11.03-.21.09-.31.06-.09.16-.17.3-.24.14-.07.33-.12.56-.14.23-.03.53-.04.89-.04.34 0 .63.01.86.04.23.03.41.08.54.14.13.07.21.15.26.24.05.09.08.19.08.31V23.2zM142.96 16.44v7.71c0 .11-.03.21-.1.3s-.17.16-.32.22-.35.1-.61.14c-.26.03-.58.05-.96.05-.39 0-.71-.02-.97-.05a2.51 2.51 0 0 1-.61-.14c-.16-.06-.26-.13-.32-.22a.53.53 0 0 1-.09-.3v-7.71l-5.34-11.95a6.52 6.52 0 0 1-.37-.97c-.06-.23-.03-.41.09-.53.12-.12.33-.19.64-.22s.74-.04 1.3-.04c.46 0 .83.01 1.11.03.28.02.5.07.66.13.16.06.28.14.35.25.08.1.15.23.22.39l2.17 5.39a57.362 57.362 0 0 1 1.26 3.45h.03c.19-.61.39-1.2.59-1.78.2-.58.4-1.12.59-1.65l2.14-5.36c.05-.18.11-.32.19-.43.08-.11.19-.19.34-.26.15-.07.36-.11.62-.14.26-.02.61-.03 1.04-.03.57 0 1.02.01 1.34.04.32.03.53.1.65.22s.14.3.08.53c-.06.24-.18.56-.36.97l-5.36 11.96zM163.72 23.1c.12.41.2.73.23.97s-.01.41-.12.53c-.11.12-.31.19-.59.22-.28.03-.67.04-1.16.04-.51 0-.91-.01-1.2-.03-.29-.02-.51-.05-.66-.1-.15-.05-.26-.12-.32-.21s-.11-.21-.15-.36l-1.31-4.41h-7.33l-1.24 4.29c-.04.16-.09.29-.16.4-.07.11-.17.19-.32.25s-.35.1-.62.13c-.27.02-.62.03-1.05.03-.46 0-.83-.02-1.09-.05-.26-.03-.44-.12-.54-.25-.1-.13-.14-.31-.11-.55.03-.24.11-.55.23-.95l6.02-19.46c.06-.19.13-.35.21-.47.08-.12.21-.21.38-.27.18-.06.42-.1.73-.12.31-.02.72-.03 1.24-.03.59 0 1.07.01 1.42.03.35.02.63.06.82.12.2.06.34.16.42.28.09.12.16.29.22.51l6.05 19.46zm-8.96-16.09h-.02l-2.76 9.33h5.54l-2.76-9.33zM181.62 23.2c0 .26-.04.49-.12.7-.08.2-.19.37-.32.51-.14.14-.3.23-.48.3s-.37.09-.57.09h-1.69c-.35 0-.66-.04-.91-.12-.26-.08-.49-.22-.71-.43-.22-.21-.42-.49-.63-.85-.2-.36-.43-.82-.68-1.38l-4.86-10.26A50.602 50.602 0 0 1 169 7.72h-.03a100.48 100.48 0 0 1 .12 4.93v11.48c0 .11-.03.21-.08.31-.06.09-.15.17-.29.23-.14.06-.32.11-.55.14-.23.03-.53.05-.89.05-.35 0-.64-.02-.88-.05-.23-.03-.41-.08-.54-.14a.571.571 0 0 1-.27-.23.62.62 0 0 1-.08-.31V4.41c0-.53.14-.93.41-1.2.28-.26.62-.4 1.02-.4h2.13c.38 0 .7.04.97.11.26.07.5.19.7.36.21.17.4.4.58.7.18.3.37.67.56 1.11l3.8 8.02c.22.49.44.96.66 1.43.22.47.42.94.63 1.41.2.47.4.93.59 1.38.19.45.38.9.56 1.36h.02c-.03-.79-.05-1.62-.07-2.47-.02-.86-.02-1.68-.02-2.46V3.48c0-.11.03-.21.09-.31.06-.09.16-.17.3-.24.14-.07.33-.12.56-.14.23-.03.53-.04.89-.04.34 0 .63.01.86.04.23.03.41.08.54.14.13.07.21.15.26.24.05.09.08.19.08.31V23.2zM200 6.23c0 .33-.01.61-.04.85s-.06.43-.11.57c-.04.14-.1.24-.17.3s-.14.09-.23.09c-.13 0-.34-.1-.63-.3-.29-.2-.68-.42-1.16-.66-.48-.24-1.06-.46-1.73-.66-.67-.2-1.45-.3-2.33-.3-.95 0-1.8.18-2.57.55-.76.37-1.42.89-1.96 1.56s-.96 1.48-1.25 2.43c-.29.94-.44 1.99-.44 3.13 0 1.25.15 2.36.45 3.31.3.96.71 1.76 1.24 2.4.53.64 1.17 1.13 1.92 1.46.75.33 1.58.49 2.48.49.44 0 .88-.06 1.31-.17.43-.11.83-.28 1.21-.51v-5.09h-3.7c-.18 0-.32-.13-.42-.38-.1-.25-.15-.69-.15-1.3 0-.32.01-.58.04-.8.02-.21.06-.39.11-.52s.11-.23.18-.29c.07-.06.15-.09.24-.09h6.59c.16 0 .3.03.43.09s.24.16.33.28c.1.12.17.27.22.45.05.18.08.38.08.6v8.73c0 .34-.05.64-.16.89s-.32.46-.65.6c-.33.15-.73.3-1.22.46-.48.16-.98.29-1.5.41-.52.11-1.04.2-1.57.25-.53.06-1.06.09-1.59.09-1.56 0-2.95-.25-4.19-.75-1.23-.5-2.28-1.23-3.13-2.19-.86-.96-1.51-2.12-1.96-3.49-.45-1.37-.68-2.93-.68-4.67 0-1.8.24-3.41.72-4.84.48-1.43 1.17-2.64 2.05-3.65.88-1 1.95-1.77 3.21-2.3 1.25-.53 2.65-.8 4.19-.8.85 0 1.61.07 2.31.19.69.13 1.3.29 1.82.47.52.19.95.39 1.29.6.34.22.58.4.72.56.14.16.23.38.29.67.08.29.11.71.11 1.28z"></path><path style="fill:#134391" d="m52.37 4.14-3.63-.23-9.84 12.24L28.41 2.67H17.22v1.51h2.98l12.7 16.34v10.21L11.15 2.67H.02v1.51h2.99v30.6H0v1.5h8.97v-1.5H6V8.03l21.86 28.25 12.51.01V19.08z"></path><path class="st1" d="M71.09 12.44c0-7.65-8.41-9.68-14.36-9.77H44.54v1.51h11.51c2.11.21 4.69 1.45 6.2 3.66.84 1.24 1.38 2.73 1.36 4.63-.05 5.36-4.73 8.29-8.6 8.11h-7.16v.3h-.01V36.3H58.3v-1.5h-2.99V22.07c7.24-.29 15.77-1.98 15.78-9.63z"></path></svg>