<svg version="1.1" id="Layer_1" xmlns="http://www.w3.org/2000/svg" xmlns:xlink="http://www.w3.org/1999/xlink" x="0px" y="0px" viewBox="0 0 200 43.81" style="enable-background:new 0 0 200 43.81;" xml:space="preserve">
<style type="text/css">
	.st0{fill:#1E1E1C;}
	.st1{fill:#E20717;}
	.st2{fill:#134391;}
</style>
<g>
	<g>
		<g>
			<g>
				<g>
					<path class="st0" d="M83.03,30.62c0,0.09,0,0.17-0.01,0.23c-0.01,0.07-0.02,0.12-0.03,0.16c-0.02,0.04-0.03,0.07-0.06,0.09
						c-0.02,0.02-0.05,0.03-0.07,0.03H81.4v4.94c0,0.03-0.01,0.06-0.03,0.09c-0.02,0.02-0.05,0.05-0.1,0.06
						c-0.04,0.02-0.11,0.03-0.18,0.04c-0.08,0.01-0.17,0.01-0.29,0.01c-0.11,0-0.21,0-0.29-0.01c-0.08-0.01-0.14-0.02-0.18-0.04
						c-0.04-0.02-0.08-0.04-0.1-0.06c-0.02-0.02-0.03-0.05-0.03-0.09v-4.94h-1.45c-0.03,0-0.06-0.01-0.08-0.03
						c-0.02-0.02-0.04-0.05-0.05-0.09c-0.02-0.04-0.03-0.09-0.03-0.16c-0.01-0.06-0.01-0.14-0.01-0.23c0-0.1,0-0.18,0.01-0.24
						c0.01-0.07,0.02-0.12,0.03-0.16c0.01-0.04,0.03-0.07,0.05-0.08c0.02-0.02,0.05-0.03,0.08-0.03h4.09c0.03,0,0.05,0.01,0.07,0.03
						c0.02,0.02,0.04,0.05,0.06,0.08c0.02,0.04,0.03,0.09,0.03,0.16C83.03,30.45,83.03,30.53,83.03,30.62z"></path>
					<path class="st0" d="M88.64,36.07c0,0.03-0.01,0.06-0.03,0.09c-0.02,0.02-0.05,0.05-0.1,0.06c-0.04,0.02-0.1,0.03-0.18,0.04
						c-0.07,0.01-0.17,0.01-0.28,0.01c-0.12,0-0.21,0-0.29-0.01c-0.08-0.01-0.14-0.02-0.18-0.04c-0.04-0.02-0.08-0.04-0.09-0.06
						c-0.02-0.02-0.03-0.05-0.03-0.09v-2.48h-2.17v2.48c0,0.03-0.01,0.06-0.03,0.09c-0.02,0.02-0.05,0.05-0.09,0.06
						c-0.05,0.02-0.1,0.03-0.18,0.04c-0.08,0.01-0.17,0.01-0.29,0.01c-0.11,0-0.21,0-0.28-0.01c-0.08-0.01-0.14-0.02-0.18-0.04
						c-0.04-0.02-0.08-0.04-0.1-0.06c-0.02-0.02-0.03-0.05-0.03-0.09v-5.79c0-0.03,0.01-0.06,0.03-0.08
						c0.02-0.03,0.05-0.05,0.1-0.06c0.04-0.02,0.11-0.03,0.18-0.04c0.08-0.01,0.17-0.01,0.28-0.01c0.12,0,0.21,0,0.29,0.01
						c0.07,0.01,0.13,0.02,0.18,0.04c0.04,0.02,0.08,0.04,0.09,0.06c0.02,0.02,0.03,0.05,0.03,0.08v2.25h2.17v-2.25
						c0-0.03,0.01-0.06,0.03-0.08c0.02-0.03,0.05-0.05,0.09-0.06c0.04-0.02,0.1-0.03,0.18-0.04c0.08-0.01,0.17-0.01,0.29-0.01
						c0.11,0,0.21,0,0.28,0.01c0.07,0.01,0.13,0.02,0.18,0.04c0.04,0.02,0.08,0.04,0.1,0.06c0.02,0.02,0.03,0.05,0.03,0.08V36.07z"></path>
					<path class="st0" d="M92.99,35.75c0,0.09,0,0.17-0.01,0.23c-0.01,0.06-0.02,0.11-0.03,0.15c-0.02,0.04-0.03,0.07-0.06,0.08
						c-0.02,0.02-0.05,0.03-0.07,0.03H89.9c-0.1,0-0.18-0.03-0.25-0.09c-0.07-0.06-0.1-0.16-0.1-0.3v-5.34c0-0.14,0.03-0.24,0.1-0.3
						c0.07-0.06,0.15-0.09,0.25-0.09h2.9c0.03,0,0.05,0.01,0.07,0.02c0.02,0.02,0.04,0.04,0.05,0.08c0.01,0.04,0.03,0.09,0.03,0.15
						c0.01,0.06,0.01,0.14,0.01,0.23c0,0.09,0,0.16-0.01,0.23c-0.01,0.06-0.02,0.11-0.03,0.15c-0.02,0.04-0.03,0.07-0.05,0.08
						c-0.02,0.02-0.04,0.03-0.07,0.03h-2.07v1.5h1.75c0.03,0,0.05,0.01,0.07,0.03c0.02,0.02,0.04,0.04,0.06,0.08
						c0.02,0.04,0.03,0.09,0.03,0.15c0.01,0.06,0.01,0.14,0.01,0.22c0,0.09,0,0.17-0.01,0.23c-0.01,0.06-0.02,0.11-0.03,0.14
						c-0.01,0.04-0.03,0.06-0.06,0.08c-0.02,0.02-0.05,0.02-0.07,0.02h-1.75v1.73h2.09c0.03,0,0.05,0.01,0.07,0.03
						c0.02,0.02,0.04,0.04,0.06,0.08c0.01,0.04,0.03,0.09,0.03,0.15C92.99,35.59,92.99,35.66,92.99,35.75z"></path>
					<path class="st1" d="M97.33,36.07c0,0.03-0.01,0.06-0.03,0.09c-0.02,0.02-0.05,0.05-0.1,0.06c-0.04,0.02-0.1,0.03-0.18,0.04
						c-0.07,0.01-0.17,0.01-0.29,0.01c-0.11,0-0.21,0-0.29-0.01c-0.08-0.01-0.14-0.02-0.18-0.04c-0.04-0.02-0.08-0.04-0.1-0.06
						c-0.02-0.02-0.03-0.05-0.03-0.09v-5.79c0-0.03,0.01-0.06,0.03-0.08c0.02-0.03,0.05-0.05,0.1-0.06
						c0.05-0.02,0.11-0.03,0.18-0.04c0.07-0.01,0.17-0.01,0.28-0.01c0.12,0,0.21,0,0.29,0.01c0.08,0.01,0.14,0.02,0.18,0.04
						c0.05,0.02,0.08,0.04,0.1,0.06c0.02,0.02,0.03,0.05,0.03,0.08V36.07z"></path>
					<path class="st1" d="M103.04,35.81c0,0.07-0.01,0.14-0.04,0.19c-0.02,0.06-0.06,0.1-0.1,0.14c-0.04,0.04-0.09,0.07-0.14,0.08
						c-0.06,0.02-0.11,0.03-0.17,0.03h-0.5c-0.11,0-0.2-0.01-0.27-0.03c-0.08-0.02-0.15-0.06-0.21-0.12
						c-0.06-0.06-0.13-0.14-0.19-0.24c-0.06-0.1-0.13-0.23-0.2-0.39l-1.44-2.87c-0.08-0.17-0.17-0.35-0.26-0.55
						c-0.09-0.2-0.16-0.39-0.23-0.58h-0.01c0.01,0.23,0.02,0.45,0.03,0.68c0.01,0.23,0.01,0.46,0.01,0.7v3.21
						c0,0.03-0.01,0.06-0.02,0.08c-0.02,0.03-0.05,0.05-0.09,0.06c-0.04,0.02-0.1,0.03-0.16,0.04c-0.07,0.01-0.16,0.01-0.27,0.01
						c-0.1,0-0.19,0-0.26-0.01c-0.07-0.01-0.12-0.02-0.16-0.04c-0.04-0.02-0.07-0.04-0.08-0.06c-0.02-0.03-0.02-0.05-0.02-0.08
						v-5.51c0-0.15,0.04-0.26,0.12-0.33c0.08-0.07,0.18-0.11,0.3-0.11h0.63c0.11,0,0.21,0.01,0.29,0.03
						c0.08,0.02,0.15,0.05,0.21,0.1c0.06,0.05,0.12,0.11,0.17,0.2c0.05,0.08,0.11,0.19,0.17,0.31l1.13,2.24
						c0.07,0.14,0.13,0.27,0.19,0.4c0.06,0.13,0.13,0.26,0.19,0.39c0.06,0.13,0.12,0.26,0.17,0.39c0.06,0.13,0.11,0.25,0.17,0.38h0
						c-0.01-0.22-0.02-0.45-0.02-0.69c0-0.24-0.01-0.47-0.01-0.69V30.3c0-0.03,0.01-0.06,0.03-0.09c0.02-0.02,0.05-0.05,0.09-0.07
						c0.04-0.02,0.1-0.03,0.17-0.04c0.07-0.01,0.16-0.01,0.27-0.01c0.1,0,0.19,0,0.25,0.01c0.07,0.01,0.12,0.02,0.16,0.04
						c0.04,0.02,0.06,0.04,0.08,0.07c0.01,0.02,0.02,0.05,0.02,0.09V35.81z"></path>
					<path class="st1" d="M108.74,35.81c0,0.07-0.01,0.14-0.04,0.19c-0.02,0.06-0.06,0.1-0.1,0.14c-0.04,0.04-0.09,0.07-0.14,0.08
						c-0.06,0.02-0.11,0.03-0.17,0.03h-0.5c-0.1,0-0.19-0.01-0.27-0.03c-0.08-0.02-0.15-0.06-0.21-0.12
						c-0.06-0.06-0.13-0.14-0.19-0.24c-0.06-0.1-0.13-0.23-0.2-0.39l-1.45-2.87c-0.08-0.17-0.17-0.35-0.25-0.55
						c-0.09-0.2-0.16-0.39-0.23-0.58h-0.01c0.01,0.23,0.02,0.45,0.03,0.68c0.01,0.23,0.01,0.46,0.01,0.7v3.21
						c0,0.03-0.01,0.06-0.02,0.08c-0.02,0.03-0.04,0.05-0.09,0.06c-0.04,0.02-0.09,0.03-0.16,0.04c-0.07,0.01-0.16,0.01-0.26,0.01
						c-0.11,0-0.19,0-0.26-0.01c-0.07-0.01-0.12-0.02-0.16-0.04c-0.04-0.02-0.07-0.04-0.08-0.06c-0.02-0.03-0.02-0.05-0.02-0.08
						v-5.51c0-0.15,0.04-0.26,0.12-0.33c0.08-0.07,0.18-0.11,0.3-0.11h0.63c0.11,0,0.21,0.01,0.29,0.03
						c0.08,0.02,0.15,0.05,0.21,0.1c0.06,0.05,0.12,0.11,0.17,0.2c0.05,0.08,0.11,0.19,0.17,0.31l1.13,2.24
						c0.07,0.14,0.13,0.27,0.2,0.4c0.06,0.13,0.13,0.26,0.19,0.39c0.06,0.13,0.12,0.26,0.17,0.39c0.06,0.13,0.11,0.25,0.17,0.38h0
						c-0.01-0.22-0.02-0.45-0.02-0.69c0-0.24-0.01-0.47-0.01-0.69V30.3c0-0.03,0.01-0.06,0.03-0.09c0.02-0.02,0.05-0.05,0.09-0.07
						c0.04-0.02,0.1-0.03,0.17-0.04c0.07-0.01,0.16-0.01,0.26-0.01c0.1,0,0.19,0,0.26,0.01c0.07,0.01,0.12,0.02,0.16,0.04
						c0.04,0.02,0.06,0.04,0.08,0.07c0.02,0.02,0.02,0.05,0.02,0.09V35.81z"></path>
					<path class="st1" d="M115.06,33.11c0,0.51-0.06,0.96-0.18,1.36c-0.12,0.4-0.3,0.74-0.53,1.02c-0.24,0.28-0.53,0.49-0.88,0.64
						c-0.35,0.15-0.75,0.22-1.21,0.22c-0.45,0-0.85-0.06-1.18-0.19c-0.34-0.12-0.62-0.32-0.84-0.57c-0.22-0.26-0.39-0.58-0.5-0.98
						c-0.11-0.39-0.17-0.86-0.17-1.4c0-0.5,0.06-0.94,0.18-1.34c0.12-0.4,0.3-0.73,0.53-1.01c0.24-0.28,0.53-0.49,0.88-0.64
						c0.35-0.15,0.75-0.22,1.21-0.22c0.44,0,0.83,0.06,1.16,0.18c0.34,0.12,0.62,0.31,0.84,0.57c0.23,0.26,0.4,0.58,0.51,0.97
						C115.01,32.12,115.06,32.58,115.06,33.11z M113.82,33.17c0-0.32-0.02-0.61-0.07-0.88c-0.05-0.26-0.13-0.49-0.24-0.68
						c-0.11-0.19-0.27-0.33-0.46-0.44c-0.19-0.1-0.43-0.15-0.72-0.15c-0.29,0-0.53,0.06-0.73,0.17c-0.19,0.12-0.35,0.27-0.47,0.46
						c-0.12,0.19-0.2,0.42-0.25,0.68c-0.05,0.26-0.07,0.53-0.07,0.82c0,0.33,0.02,0.64,0.07,0.9c0.05,0.27,0.13,0.49,0.24,0.68
						c0.11,0.19,0.27,0.33,0.46,0.43c0.19,0.1,0.43,0.15,0.72,0.15c0.29,0,0.53-0.06,0.73-0.17c0.19-0.11,0.35-0.27,0.47-0.46
						c0.12-0.2,0.2-0.42,0.25-0.68C113.8,33.74,113.82,33.47,113.82,33.17z"></path>
					<path class="st1" d="M118.67,36.02c-0.02,0.05-0.03,0.1-0.06,0.13c-0.02,0.03-0.06,0.06-0.12,0.08
						c-0.05,0.02-0.13,0.03-0.22,0.03c-0.09,0-0.21,0.01-0.36,0.01c-0.12,0-0.22,0-0.31,0c-0.09,0-0.16-0.01-0.22-0.01
						c-0.06-0.01-0.11-0.02-0.15-0.03c-0.04-0.01-0.07-0.03-0.09-0.05c-0.03-0.02-0.04-0.04-0.06-0.07
						c-0.01-0.03-0.03-0.06-0.04-0.1l-1.73-5.43c-0.04-0.11-0.06-0.2-0.06-0.27c-0.01-0.07,0.01-0.12,0.04-0.15
						c0.04-0.03,0.1-0.05,0.19-0.06c0.09-0.01,0.22-0.01,0.38-0.01c0.14,0,0.25,0,0.32,0.01c0.08,0.01,0.14,0.02,0.18,0.03
						c0.04,0.02,0.07,0.04,0.09,0.07c0.02,0.03,0.03,0.07,0.05,0.12l1.41,4.73h0l1.39-4.7c0.01-0.05,0.03-0.1,0.04-0.13
						c0.02-0.03,0.05-0.06,0.09-0.08c0.04-0.02,0.11-0.03,0.19-0.04c0.08-0.01,0.19-0.01,0.33-0.01c0.14,0,0.25,0,0.32,0.01
						c0.08,0.01,0.13,0.03,0.16,0.07c0.03,0.04,0.04,0.09,0.03,0.15c-0.01,0.07-0.03,0.15-0.07,0.26L118.67,36.02z"></path>
					<path class="st1" d="M125,35.78c0.04,0.11,0.06,0.2,0.07,0.27c0.01,0.07,0,0.12-0.04,0.15c-0.03,0.03-0.09,0.05-0.18,0.06
						c-0.08,0.01-0.2,0.01-0.35,0.01c-0.15,0-0.27,0-0.36-0.01c-0.09-0.01-0.15-0.01-0.2-0.03c-0.04-0.01-0.08-0.03-0.09-0.06
						c-0.02-0.02-0.03-0.06-0.04-0.1l-0.39-1.23h-2.18l-0.37,1.2c-0.01,0.04-0.03,0.08-0.05,0.11c-0.02,0.03-0.05,0.05-0.09,0.07
						c-0.04,0.02-0.11,0.03-0.18,0.04c-0.08,0.01-0.18,0.01-0.31,0.01c-0.14,0-0.25,0-0.32-0.01c-0.08-0.01-0.13-0.03-0.16-0.07
						c-0.03-0.04-0.04-0.09-0.03-0.15c0.01-0.07,0.03-0.15,0.07-0.27l1.79-5.44c0.02-0.05,0.04-0.1,0.06-0.13
						c0.02-0.03,0.06-0.06,0.11-0.08c0.05-0.02,0.13-0.03,0.22-0.03c0.09,0,0.21-0.01,0.37-0.01c0.18,0,0.32,0,0.42,0.01
						c0.1,0,0.19,0.02,0.24,0.03c0.06,0.02,0.1,0.04,0.13,0.08c0.03,0.03,0.05,0.08,0.06,0.14L125,35.78z M122.34,31.28
						L122.34,31.28l-0.83,2.6h1.65L122.34,31.28z"></path>
					<path class="st1" d="M128.8,30.62c0,0.09,0,0.17-0.01,0.23c-0.01,0.07-0.02,0.12-0.03,0.16c-0.01,0.04-0.03,0.07-0.06,0.09
						c-0.02,0.02-0.05,0.03-0.07,0.03h-1.45v4.94c0,0.03-0.01,0.06-0.03,0.09c-0.02,0.02-0.05,0.05-0.1,0.06
						c-0.04,0.02-0.11,0.03-0.18,0.04c-0.08,0.01-0.17,0.01-0.28,0.01s-0.21,0-0.29-0.01c-0.08-0.01-0.14-0.02-0.18-0.04
						c-0.04-0.02-0.08-0.04-0.1-0.06c-0.02-0.02-0.03-0.05-0.03-0.09v-4.94h-1.45c-0.03,0-0.06-0.01-0.08-0.03
						c-0.02-0.02-0.04-0.05-0.05-0.09c-0.02-0.04-0.03-0.09-0.03-0.16c-0.01-0.06-0.01-0.14-0.01-0.23c0-0.1,0-0.18,0.01-0.24
						c0.01-0.07,0.02-0.12,0.03-0.16c0.01-0.04,0.03-0.07,0.05-0.08c0.02-0.02,0.05-0.03,0.08-0.03h4.09c0.03,0,0.05,0.01,0.07,0.03
						c0.02,0.02,0.04,0.05,0.06,0.08c0.02,0.04,0.03,0.09,0.03,0.16C128.79,30.45,128.8,30.53,128.8,30.62z"></path>
					<path class="st1" d="M131.05,36.07c0,0.03-0.01,0.06-0.03,0.09c-0.02,0.02-0.05,0.05-0.1,0.06c-0.05,0.02-0.1,0.03-0.18,0.04
						c-0.07,0.01-0.17,0.01-0.29,0.01c-0.11,0-0.21,0-0.28-0.01c-0.08-0.01-0.14-0.02-0.18-0.04c-0.04-0.02-0.08-0.04-0.1-0.06
						c-0.02-0.02-0.03-0.05-0.03-0.09v-5.79c0-0.03,0.01-0.06,0.03-0.08c0.02-0.03,0.05-0.05,0.1-0.06
						c0.05-0.02,0.11-0.03,0.18-0.04c0.07-0.01,0.17-0.01,0.28-0.01c0.12,0,0.21,0,0.29,0.01c0.07,0.01,0.13,0.02,0.18,0.04
						c0.04,0.02,0.08,0.04,0.1,0.06c0.02,0.02,0.03,0.05,0.03,0.08V36.07z"></path>
					<path class="st1" d="M135.41,36.02c-0.02,0.05-0.03,0.1-0.06,0.13c-0.02,0.03-0.06,0.06-0.12,0.08
						c-0.05,0.02-0.13,0.03-0.22,0.03c-0.09,0-0.21,0.01-0.36,0.01c-0.12,0-0.22,0-0.31,0c-0.09,0-0.16-0.01-0.22-0.01
						c-0.06-0.01-0.11-0.02-0.15-0.03c-0.04-0.01-0.07-0.03-0.09-0.05c-0.03-0.02-0.05-0.04-0.06-0.07
						c-0.01-0.03-0.03-0.06-0.04-0.1l-1.73-5.43c-0.04-0.11-0.06-0.2-0.07-0.27c-0.01-0.07,0.01-0.12,0.05-0.15
						c0.04-0.03,0.1-0.05,0.19-0.06c0.09-0.01,0.22-0.01,0.38-0.01c0.14,0,0.25,0,0.32,0.01c0.08,0.01,0.14,0.02,0.18,0.03
						c0.04,0.02,0.07,0.04,0.09,0.07c0.02,0.03,0.03,0.07,0.05,0.12l1.41,4.73h0l1.39-4.7c0.01-0.05,0.03-0.1,0.04-0.13
						c0.02-0.03,0.05-0.06,0.09-0.08c0.04-0.02,0.11-0.03,0.19-0.04c0.08-0.01,0.19-0.01,0.33-0.01c0.14,0,0.24,0,0.32,0.01
						c0.08,0.01,0.13,0.03,0.16,0.07c0.03,0.04,0.04,0.09,0.03,0.15c-0.01,0.07-0.03,0.15-0.07,0.26L135.41,36.02z"></path>
					<path class="st1" d="M141.41,35.75c0,0.09,0,0.17-0.01,0.23c-0.01,0.06-0.02,0.11-0.03,0.15c-0.02,0.04-0.03,0.07-0.06,0.08
						c-0.02,0.02-0.05,0.03-0.07,0.03h-2.92c-0.1,0-0.18-0.03-0.25-0.09c-0.07-0.06-0.1-0.16-0.1-0.3v-5.34
						c0-0.14,0.03-0.24,0.1-0.3c0.07-0.06,0.15-0.09,0.25-0.09h2.9c0.03,0,0.05,0.01,0.07,0.02c0.02,0.02,0.04,0.04,0.05,0.08
						c0.01,0.04,0.03,0.09,0.03,0.15c0.01,0.06,0.01,0.14,0.01,0.23c0,0.09,0,0.16-0.01,0.23c-0.01,0.06-0.02,0.11-0.03,0.15
						c-0.02,0.04-0.03,0.07-0.05,0.08c-0.02,0.02-0.05,0.03-0.07,0.03h-2.07v1.5h1.75c0.03,0,0.05,0.01,0.07,0.03
						c0.02,0.02,0.04,0.04,0.06,0.08c0.01,0.04,0.03,0.09,0.03,0.15c0.01,0.06,0.01,0.14,0.01,0.22c0,0.09,0,0.17-0.01,0.23
						c-0.01,0.06-0.02,0.11-0.03,0.14c-0.02,0.04-0.03,0.06-0.06,0.08c-0.02,0.02-0.05,0.02-0.07,0.02h-1.75v1.73h2.09
						c0.03,0,0.05,0.01,0.07,0.03c0.02,0.02,0.04,0.04,0.06,0.08c0.01,0.04,0.03,0.09,0.03,0.15
						C141.41,35.59,141.41,35.66,141.41,35.75z"></path>
					<path class="st0" d="M148.99,31.91c0,0.35-0.05,0.66-0.16,0.93c-0.11,0.27-0.27,0.5-0.48,0.68c-0.21,0.18-0.46,0.32-0.77,0.42
						c-0.3,0.1-0.66,0.14-1.07,0.14h-0.52v1.99c0,0.03-0.01,0.06-0.03,0.09c-0.02,0.03-0.06,0.05-0.1,0.06
						c-0.05,0.02-0.11,0.03-0.19,0.04c-0.08,0.01-0.18,0.01-0.31,0.01c-0.12,0-0.22-0.01-0.31-0.01c-0.08-0.01-0.15-0.02-0.19-0.04
						c-0.05-0.02-0.08-0.04-0.1-0.06c-0.02-0.03-0.03-0.05-0.03-0.09v-5.6c0-0.15,0.04-0.26,0.12-0.34
						c0.08-0.08,0.18-0.11,0.31-0.11h1.47c0.15,0,0.29,0.01,0.42,0.02c0.13,0.01,0.29,0.04,0.48,0.07c0.19,0.04,0.37,0.11,0.56,0.2
						c0.19,0.1,0.35,0.23,0.49,0.38c0.13,0.15,0.24,0.33,0.31,0.53C148.95,31.43,148.99,31.66,148.99,31.91z M147.66,32
						c0-0.22-0.04-0.4-0.11-0.54c-0.08-0.14-0.17-0.25-0.28-0.31c-0.11-0.07-0.23-0.11-0.35-0.13c-0.12-0.02-0.25-0.03-0.38-0.03
						h-0.54v2.11h0.57c0.2,0,0.37-0.03,0.51-0.08c0.14-0.05,0.25-0.13,0.33-0.23c0.09-0.1,0.15-0.21,0.2-0.35
						C147.64,32.31,147.66,32.16,147.66,32z"></path>
					<path class="st0" d="M155.78,33.06c0,0.52-0.06,0.98-0.19,1.39c-0.13,0.41-0.32,0.75-0.57,1.04c-0.25,0.28-0.57,0.5-0.94,0.65
						c-0.37,0.15-0.81,0.22-1.3,0.22c-0.48,0-0.91-0.06-1.27-0.19c-0.36-0.13-0.66-0.32-0.9-0.58c-0.24-0.26-0.42-0.59-0.54-0.99
						c-0.12-0.4-0.18-0.88-0.18-1.42c0-0.5,0.06-0.96,0.19-1.36c0.13-0.4,0.32-0.74,0.57-1.03c0.25-0.28,0.57-0.5,0.94-0.65
						c0.37-0.15,0.81-0.23,1.3-0.23c0.47,0,0.89,0.06,1.25,0.19c0.36,0.13,0.66,0.32,0.9,0.58c0.24,0.26,0.43,0.59,0.55,0.98
						C155.72,32.05,155.78,32.52,155.78,33.06z M154.45,33.13c0-0.33-0.03-0.62-0.08-0.89c-0.05-0.27-0.14-0.5-0.26-0.69
						c-0.12-0.19-0.29-0.34-0.49-0.44c-0.21-0.1-0.46-0.16-0.77-0.16c-0.31,0-0.57,0.06-0.78,0.18c-0.21,0.12-0.38,0.27-0.5,0.47
						c-0.13,0.2-0.22,0.42-0.27,0.69c-0.05,0.26-0.08,0.54-0.08,0.83c0,0.34,0.03,0.65,0.08,0.92c0.05,0.27,0.14,0.5,0.26,0.69
						c0.12,0.19,0.29,0.34,0.49,0.44c0.2,0.1,0.46,0.15,0.77,0.15c0.31,0,0.57-0.06,0.78-0.17c0.21-0.12,0.38-0.27,0.51-0.47
						c0.13-0.2,0.22-0.43,0.27-0.69C154.43,33.7,154.45,33.42,154.45,33.13z"></path>
					<path class="st0" d="M160.28,35.71c0,0.1,0,0.18-0.01,0.24c-0.01,0.07-0.02,0.12-0.04,0.16c-0.02,0.04-0.04,0.07-0.06,0.09
						c-0.02,0.02-0.05,0.03-0.08,0.03h-2.85c-0.11,0-0.19-0.03-0.27-0.09c-0.07-0.06-0.11-0.16-0.11-0.31v-5.65
						c0-0.03,0.01-0.06,0.03-0.09c0.02-0.03,0.06-0.05,0.1-0.06c0.05-0.02,0.11-0.03,0.19-0.04c0.08-0.01,0.18-0.01,0.31-0.01
						c0.12,0,0.23,0,0.31,0.01c0.08,0.01,0.14,0.02,0.19,0.04c0.05,0.02,0.08,0.04,0.1,0.06c0.02,0.03,0.03,0.06,0.03,0.09v5.01
						h1.96c0.03,0,0.06,0.01,0.08,0.03c0.02,0.02,0.04,0.05,0.06,0.09c0.02,0.04,0.03,0.09,0.04,0.16
						C160.28,35.54,160.28,35.62,160.28,35.71z"></path>
					<path class="st0" d="M162.69,33.88v2.19c0,0.03-0.01,0.06-0.03,0.09c-0.02,0.03-0.06,0.05-0.1,0.06
						c-0.05,0.02-0.11,0.03-0.19,0.04c-0.08,0.01-0.18,0.01-0.3,0.01c-0.13,0-0.23-0.01-0.31-0.01c-0.08-0.01-0.15-0.02-0.2-0.04
						c-0.05-0.02-0.08-0.04-0.1-0.06c-0.02-0.03-0.03-0.05-0.03-0.09v-2.19l-1.7-3.39c-0.06-0.12-0.1-0.21-0.12-0.28
						c-0.02-0.07-0.01-0.12,0.03-0.15c0.04-0.03,0.11-0.05,0.2-0.06c0.1-0.01,0.24-0.01,0.41-0.01c0.15,0,0.27,0,0.35,0.01
						c0.09,0.01,0.16,0.02,0.21,0.04c0.05,0.02,0.09,0.04,0.11,0.07c0.02,0.03,0.05,0.07,0.07,0.11l0.69,1.53
						c0.07,0.15,0.13,0.3,0.2,0.47c0.07,0.16,0.13,0.33,0.2,0.51h0.01c0.06-0.17,0.12-0.34,0.19-0.5c0.06-0.16,0.13-0.32,0.19-0.47
						l0.68-1.52c0.02-0.05,0.04-0.09,0.06-0.12c0.02-0.03,0.06-0.06,0.11-0.07c0.05-0.02,0.11-0.03,0.2-0.04
						c0.08-0.01,0.19-0.01,0.33-0.01c0.18,0,0.32,0,0.43,0.01c0.1,0.01,0.17,0.03,0.21,0.06c0.04,0.03,0.05,0.08,0.03,0.15
						c-0.02,0.07-0.06,0.16-0.12,0.27L162.69,33.88z"></path>
					<path class="st0" d="M170.05,30.54c0,0.09,0,0.17-0.01,0.24c-0.01,0.07-0.02,0.12-0.04,0.16c-0.02,0.04-0.04,0.07-0.06,0.09
						c-0.02,0.02-0.05,0.03-0.08,0.03h-1.56v5.02c0,0.03-0.01,0.06-0.03,0.09c-0.02,0.03-0.06,0.05-0.1,0.06
						c-0.05,0.02-0.11,0.03-0.19,0.04c-0.08,0.01-0.18,0.01-0.31,0.01c-0.12,0-0.22-0.01-0.31-0.01c-0.08-0.01-0.15-0.02-0.19-0.04
						c-0.05-0.02-0.08-0.04-0.1-0.06c-0.02-0.03-0.03-0.05-0.03-0.09v-5.02h-1.56c-0.03,0-0.06-0.01-0.08-0.03
						c-0.02-0.02-0.04-0.05-0.06-0.09c-0.02-0.04-0.03-0.09-0.04-0.16c-0.01-0.07-0.01-0.14-0.01-0.24c0-0.1,0-0.18,0.01-0.25
						c0.01-0.07,0.02-0.12,0.04-0.16c0.02-0.04,0.04-0.07,0.06-0.09c0.02-0.02,0.05-0.03,0.08-0.03h4.39c0.03,0,0.06,0.01,0.08,0.03
						c0.02,0.02,0.04,0.05,0.06,0.09c0.02,0.04,0.03,0.09,0.04,0.16C170.04,30.36,170.05,30.44,170.05,30.54z"></path>
					<path class="st0" d="M174.69,35.75c0,0.09,0,0.17-0.01,0.23c-0.01,0.06-0.02,0.11-0.04,0.15c-0.02,0.04-0.04,0.07-0.06,0.08
						c-0.02,0.02-0.05,0.03-0.08,0.03h-3.13c-0.11,0-0.19-0.03-0.27-0.09c-0.07-0.06-0.11-0.16-0.11-0.31v-5.42
						c0-0.14,0.04-0.24,0.11-0.31c0.07-0.06,0.16-0.09,0.27-0.09h3.11c0.03,0,0.05,0.01,0.08,0.02c0.02,0.02,0.04,0.04,0.06,0.08
						c0.02,0.04,0.03,0.09,0.04,0.15c0.01,0.06,0.01,0.14,0.01,0.24c0,0.09,0,0.17-0.01,0.23c-0.01,0.06-0.02,0.11-0.04,0.15
						c-0.02,0.04-0.04,0.07-0.06,0.08c-0.02,0.02-0.05,0.03-0.08,0.03h-2.22v1.52h1.88c0.03,0,0.06,0.01,0.08,0.03
						c0.02,0.02,0.04,0.04,0.06,0.08c0.02,0.04,0.03,0.09,0.04,0.15c0.01,0.06,0.01,0.14,0.01,0.23c0,0.09,0,0.17-0.01,0.23
						c-0.01,0.06-0.02,0.11-0.04,0.15c-0.02,0.04-0.04,0.06-0.06,0.08c-0.02,0.02-0.05,0.02-0.08,0.02h-1.88v1.76h2.24
						c0.03,0,0.06,0.01,0.08,0.03c0.02,0.02,0.04,0.05,0.06,0.08c0.02,0.04,0.03,0.09,0.04,0.15
						C174.68,35.58,174.69,35.65,174.69,35.75z"></path>
					<path class="st0" d="M180.17,35.3c0,0.08,0,0.15-0.01,0.2c0,0.06-0.01,0.1-0.02,0.15c-0.01,0.04-0.02,0.07-0.04,0.1
						c-0.02,0.03-0.04,0.06-0.08,0.1c-0.04,0.04-0.1,0.08-0.2,0.14c-0.1,0.06-0.22,0.11-0.37,0.17c-0.15,0.05-0.31,0.1-0.5,0.13
						c-0.19,0.04-0.39,0.05-0.61,0.05c-0.43,0-0.81-0.07-1.15-0.2c-0.34-0.13-0.63-0.33-0.88-0.59c-0.24-0.26-0.42-0.59-0.55-0.98
						c-0.13-0.39-0.19-0.85-0.19-1.37c0-0.53,0.07-1,0.21-1.41c0.14-0.41,0.34-0.76,0.59-1.03c0.25-0.28,0.56-0.49,0.91-0.63
						c0.35-0.14,0.74-0.22,1.17-0.22c0.17,0,0.34,0.01,0.5,0.04c0.16,0.03,0.31,0.07,0.44,0.11c0.14,0.05,0.26,0.1,0.37,0.16
						c0.11,0.06,0.19,0.11,0.23,0.16c0.04,0.04,0.07,0.08,0.09,0.11c0.02,0.03,0.03,0.07,0.04,0.11c0.01,0.05,0.02,0.1,0.02,0.16
						c0,0.06,0.01,0.14,0.01,0.23c0,0.1,0,0.18-0.01,0.25c-0.01,0.07-0.02,0.12-0.03,0.16c-0.02,0.04-0.04,0.07-0.06,0.09
						c-0.02,0.02-0.05,0.03-0.08,0.03c-0.05,0-0.11-0.03-0.18-0.08c-0.07-0.06-0.17-0.12-0.29-0.19c-0.12-0.07-0.26-0.13-0.42-0.19
						c-0.16-0.06-0.35-0.08-0.58-0.08c-0.25,0-0.47,0.05-0.66,0.15c-0.19,0.1-0.36,0.25-0.5,0.43c-0.14,0.19-0.24,0.41-0.31,0.68
						c-0.07,0.27-0.11,0.57-0.11,0.9c0,0.37,0.04,0.68,0.11,0.95c0.08,0.27,0.18,0.49,0.32,0.66c0.14,0.17,0.31,0.3,0.5,0.39
						c0.2,0.09,0.42,0.13,0.67,0.13c0.22,0,0.42-0.03,0.58-0.08c0.16-0.05,0.3-0.11,0.42-0.18c0.12-0.06,0.21-0.12,0.29-0.17
						c0.08-0.05,0.13-0.08,0.18-0.08c0.03,0,0.06,0.01,0.08,0.02c0.02,0.01,0.04,0.04,0.05,0.08c0.01,0.04,0.02,0.09,0.03,0.16
						C180.17,35.09,180.17,35.18,180.17,35.3z"></path>
					<path class="st0" d="M185.96,36.07c0,0.03-0.01,0.06-0.03,0.09c-0.02,0.03-0.06,0.05-0.1,0.06c-0.05,0.02-0.11,0.03-0.19,0.04
						c-0.08,0.01-0.18,0.01-0.3,0.01c-0.13,0-0.23-0.01-0.31-0.01c-0.08-0.01-0.15-0.02-0.19-0.04c-0.05-0.02-0.08-0.04-0.1-0.06
						c-0.02-0.03-0.03-0.05-0.03-0.09v-2.52h-2.33v2.52c0,0.03-0.01,0.06-0.03,0.09c-0.02,0.03-0.05,0.05-0.1,0.06
						c-0.05,0.02-0.11,0.03-0.19,0.04c-0.08,0.01-0.18,0.01-0.31,0.01c-0.12,0-0.22-0.01-0.31-0.01c-0.08-0.01-0.15-0.02-0.19-0.04
						c-0.05-0.02-0.08-0.04-0.1-0.06c-0.02-0.03-0.03-0.05-0.03-0.09v-5.88c0-0.03,0.01-0.06,0.03-0.09
						c0.02-0.03,0.06-0.05,0.1-0.06c0.05-0.02,0.11-0.03,0.19-0.04c0.08-0.01,0.18-0.01,0.31-0.01c0.12,0,0.23,0,0.31,0.01
						c0.08,0.01,0.14,0.02,0.19,0.04c0.05,0.02,0.08,0.04,0.1,0.06c0.02,0.03,0.03,0.06,0.03,0.09v2.28h2.33v-2.28
						c0-0.03,0.01-0.06,0.03-0.09c0.02-0.03,0.05-0.05,0.1-0.06c0.05-0.02,0.11-0.03,0.19-0.04c0.08-0.01,0.18-0.01,0.31-0.01
						c0.12,0,0.22,0,0.3,0.01c0.08,0.01,0.14,0.02,0.19,0.04c0.05,0.02,0.08,0.04,0.1,0.06c0.02,0.03,0.03,0.06,0.03,0.09V36.07z"></path>
					<path class="st0" d="M192.07,35.8c0,0.07-0.01,0.14-0.04,0.2c-0.03,0.06-0.06,0.11-0.1,0.14c-0.04,0.04-0.09,0.07-0.15,0.08
						c-0.06,0.02-0.12,0.03-0.18,0.03h-0.54c-0.11,0-0.21-0.01-0.29-0.03c-0.08-0.02-0.16-0.06-0.23-0.12
						c-0.07-0.06-0.14-0.14-0.2-0.24c-0.06-0.1-0.14-0.23-0.22-0.39l-1.55-2.91c-0.09-0.17-0.18-0.36-0.27-0.56
						c-0.09-0.2-0.18-0.4-0.25-0.58h-0.01c0.01,0.23,0.02,0.46,0.03,0.69c0.01,0.23,0.01,0.47,0.01,0.71v3.26
						c0,0.03-0.01,0.06-0.03,0.09c-0.02,0.03-0.05,0.05-0.09,0.07c-0.04,0.02-0.1,0.03-0.18,0.04c-0.07,0.01-0.17,0.01-0.28,0.01
						c-0.11,0-0.2-0.01-0.28-0.01c-0.07-0.01-0.13-0.02-0.17-0.04c-0.04-0.02-0.07-0.04-0.09-0.07c-0.02-0.03-0.02-0.05-0.02-0.09
						v-5.59c0-0.15,0.04-0.26,0.13-0.34c0.09-0.08,0.2-0.11,0.33-0.11h0.68c0.12,0,0.22,0.01,0.31,0.03
						c0.08,0.02,0.16,0.06,0.22,0.1c0.07,0.05,0.13,0.12,0.18,0.2c0.06,0.09,0.12,0.19,0.18,0.32l1.21,2.28
						c0.07,0.14,0.14,0.27,0.21,0.41c0.07,0.13,0.14,0.27,0.2,0.4c0.06,0.13,0.13,0.26,0.19,0.39c0.06,0.13,0.12,0.26,0.18,0.39h0
						c-0.01-0.22-0.02-0.46-0.02-0.7s-0.01-0.48-0.01-0.7v-2.92c0-0.03,0.01-0.06,0.03-0.09c0.02-0.03,0.05-0.05,0.1-0.07
						c0.04-0.02,0.1-0.03,0.18-0.04C191.31,30,191.4,30,191.52,30c0.11,0,0.2,0,0.27,0.01c0.07,0.01,0.13,0.02,0.17,0.04
						c0.04,0.02,0.07,0.04,0.08,0.07c0.02,0.03,0.02,0.06,0.02,0.09V35.8z"></path>
					<path class="st0" d="M194.32,36.07c0,0.03-0.01,0.06-0.03,0.09c-0.02,0.03-0.06,0.05-0.1,0.06c-0.05,0.02-0.11,0.03-0.19,0.04
						c-0.08,0.01-0.18,0.01-0.31,0.01c-0.12,0-0.22-0.01-0.31-0.01c-0.08-0.01-0.15-0.02-0.19-0.04c-0.05-0.02-0.08-0.04-0.1-0.06
						c-0.02-0.03-0.03-0.05-0.03-0.09v-5.88c0-0.03,0.01-0.06,0.03-0.09c0.02-0.03,0.06-0.05,0.11-0.06
						c0.05-0.02,0.12-0.03,0.19-0.04c0.08-0.01,0.18-0.01,0.3-0.01c0.12,0,0.23,0,0.31,0.01c0.08,0.01,0.14,0.02,0.19,0.04
						c0.05,0.02,0.08,0.04,0.1,0.06c0.02,0.03,0.03,0.06,0.03,0.09V36.07z"></path>
					<path class="st0" d="M200,35.3c0,0.08,0,0.15-0.01,0.2c0,0.06-0.01,0.1-0.02,0.15c-0.01,0.04-0.02,0.07-0.04,0.1
						c-0.02,0.03-0.04,0.06-0.08,0.1c-0.04,0.04-0.1,0.08-0.2,0.14c-0.1,0.06-0.22,0.11-0.37,0.17c-0.15,0.05-0.31,0.1-0.5,0.13
						c-0.19,0.04-0.39,0.05-0.61,0.05c-0.43,0-0.81-0.07-1.15-0.2c-0.34-0.13-0.63-0.33-0.88-0.59c-0.24-0.26-0.42-0.59-0.55-0.98
						c-0.13-0.39-0.19-0.85-0.19-1.37c0-0.53,0.07-1,0.21-1.41c0.14-0.41,0.34-0.76,0.59-1.03c0.25-0.28,0.56-0.49,0.91-0.63
						c0.35-0.14,0.74-0.22,1.17-0.22c0.17,0,0.34,0.01,0.5,0.04c0.16,0.03,0.31,0.07,0.45,0.11c0.14,0.05,0.26,0.1,0.37,0.16
						c0.11,0.06,0.19,0.11,0.23,0.16c0.04,0.04,0.07,0.08,0.09,0.11c0.02,0.03,0.03,0.07,0.04,0.11c0.01,0.05,0.02,0.1,0.02,0.16
						c0,0.06,0.01,0.14,0.01,0.23c0,0.1,0,0.18-0.01,0.25c-0.01,0.07-0.02,0.12-0.03,0.16c-0.02,0.04-0.04,0.07-0.06,0.09
						c-0.02,0.02-0.05,0.03-0.08,0.03c-0.05,0-0.11-0.03-0.18-0.08c-0.07-0.06-0.17-0.12-0.29-0.19c-0.12-0.07-0.26-0.13-0.42-0.19
						c-0.16-0.06-0.36-0.08-0.58-0.08c-0.25,0-0.47,0.05-0.66,0.15c-0.19,0.1-0.36,0.25-0.5,0.43c-0.14,0.19-0.24,0.41-0.31,0.68
						c-0.07,0.27-0.11,0.57-0.11,0.9c0,0.37,0.04,0.68,0.11,0.95c0.07,0.27,0.18,0.49,0.32,0.66c0.14,0.17,0.31,0.3,0.5,0.39
						c0.2,0.09,0.42,0.13,0.67,0.13c0.22,0,0.42-0.03,0.58-0.08c0.16-0.05,0.3-0.11,0.42-0.18c0.12-0.06,0.21-0.12,0.29-0.17
						c0.08-0.05,0.13-0.08,0.18-0.08c0.03,0,0.06,0.01,0.08,0.02c0.02,0.01,0.04,0.04,0.05,0.08c0.01,0.04,0.02,0.09,0.03,0.16
						C200,35.09,200,35.18,200,35.3z"></path>
				</g>
			</g>
			<polygon class="st1" points="92.26,43.81 96.12,39.79 140.57,39.79"></polygon>
		</g>
	</g>
	<g>
		<g>
			<g>
				<g>
					<path class="st0" d="M94.51,23.2c0,0.26-0.04,0.49-0.12,0.7c-0.08,0.2-0.19,0.37-0.32,0.51c-0.14,0.14-0.3,0.23-0.48,0.3
						c-0.19,0.06-0.37,0.09-0.57,0.09h-1.69c-0.35,0-0.66-0.04-0.91-0.12c-0.26-0.08-0.49-0.22-0.71-0.43
						c-0.22-0.21-0.43-0.49-0.63-0.85c-0.2-0.36-0.43-0.82-0.68-1.38l-4.86-10.26c-0.28-0.61-0.57-1.27-0.86-1.98
						c-0.29-0.71-0.55-1.39-0.78-2.06h-0.03c0.04,0.81,0.07,1.63,0.09,2.43c0.02,0.81,0.03,1.64,0.03,2.5v11.48
						c0,0.11-0.03,0.21-0.08,0.31c-0.06,0.09-0.15,0.17-0.29,0.23c-0.14,0.06-0.32,0.11-0.55,0.14c-0.23,0.03-0.53,0.05-0.89,0.05
						c-0.35,0-0.64-0.02-0.88-0.05c-0.23-0.03-0.41-0.08-0.54-0.14c-0.13-0.06-0.22-0.14-0.27-0.23c-0.05-0.09-0.08-0.19-0.08-0.31
						V4.41c0-0.53,0.14-0.93,0.41-1.2c0.28-0.26,0.62-0.4,1.02-0.4h2.13c0.38,0,0.7,0.04,0.97,0.11c0.26,0.07,0.5,0.19,0.7,0.36
						c0.21,0.17,0.4,0.4,0.58,0.7c0.18,0.3,0.37,0.67,0.56,1.11l3.8,8.02c0.22,0.49,0.44,0.96,0.66,1.43
						c0.22,0.47,0.42,0.94,0.63,1.41c0.2,0.47,0.4,0.93,0.59,1.38c0.19,0.45,0.38,0.9,0.56,1.36h0.02
						c-0.03-0.79-0.05-1.62-0.07-2.47c-0.02-0.86-0.02-1.68-0.02-2.46V3.48c0-0.11,0.03-0.21,0.09-0.31
						c0.06-0.09,0.16-0.17,0.3-0.24c0.14-0.07,0.33-0.12,0.56-0.14c0.23-0.03,0.53-0.04,0.89-0.04c0.34,0,0.63,0.01,0.86,0.04
						c0.23,0.03,0.41,0.08,0.54,0.14c0.13,0.07,0.21,0.15,0.26,0.24c0.05,0.09,0.08,0.19,0.08,0.31V23.2z"></path>
					<path class="st0" d="M113.83,23.1c0.12,0.41,0.2,0.73,0.23,0.97c0.03,0.24-0.01,0.41-0.12,0.53c-0.11,0.12-0.31,0.19-0.59,0.22
						c-0.28,0.03-0.67,0.04-1.16,0.04c-0.51,0-0.91-0.01-1.2-0.03c-0.29-0.02-0.51-0.05-0.66-0.1c-0.15-0.05-0.26-0.12-0.32-0.21
						c-0.06-0.09-0.11-0.21-0.15-0.36l-1.31-4.41h-7.33l-1.24,4.29c-0.04,0.16-0.09,0.29-0.16,0.4c-0.07,0.11-0.17,0.19-0.32,0.25
						c-0.15,0.06-0.35,0.1-0.62,0.13c-0.27,0.02-0.62,0.03-1.05,0.03c-0.46,0-0.83-0.02-1.09-0.05c-0.26-0.03-0.44-0.12-0.54-0.25
						c-0.1-0.13-0.14-0.31-0.11-0.55c0.03-0.24,0.11-0.55,0.23-0.95l6.02-19.46c0.06-0.19,0.13-0.35,0.21-0.47
						c0.08-0.12,0.21-0.21,0.38-0.27c0.18-0.06,0.42-0.1,0.73-0.12c0.31-0.02,0.72-0.03,1.24-0.03c0.59,0,1.07,0.01,1.42,0.03
						c0.35,0.02,0.63,0.06,0.82,0.12c0.2,0.06,0.34,0.16,0.42,0.28c0.09,0.12,0.16,0.29,0.22,0.51L113.83,23.1z M104.87,7.01h-0.02
						l-2.76,9.33h5.54L104.87,7.01z"></path>
					<path class="st0" d="M131.74,23.2c0,0.26-0.04,0.49-0.12,0.7c-0.08,0.2-0.19,0.37-0.32,0.51c-0.14,0.14-0.3,0.23-0.48,0.3
						c-0.19,0.06-0.37,0.09-0.57,0.09h-1.69c-0.35,0-0.66-0.04-0.91-0.12c-0.26-0.08-0.49-0.22-0.71-0.43
						c-0.22-0.21-0.42-0.49-0.63-0.85c-0.2-0.36-0.43-0.82-0.68-1.38l-4.86-10.26c-0.28-0.61-0.57-1.27-0.86-1.98
						c-0.29-0.71-0.55-1.39-0.79-2.06h-0.03c0.04,0.81,0.07,1.63,0.09,2.43c0.02,0.81,0.03,1.64,0.03,2.5v11.48
						c0,0.11-0.03,0.21-0.08,0.31c-0.06,0.09-0.15,0.17-0.29,0.23c-0.14,0.06-0.32,0.11-0.55,0.14c-0.23,0.03-0.53,0.05-0.89,0.05
						c-0.35,0-0.64-0.02-0.87-0.05c-0.23-0.03-0.41-0.08-0.54-0.14c-0.13-0.06-0.22-0.14-0.27-0.23c-0.05-0.09-0.08-0.19-0.08-0.31
						V4.41c0-0.53,0.14-0.93,0.41-1.2c0.28-0.26,0.62-0.4,1.02-0.4h2.13c0.38,0,0.7,0.04,0.97,0.11c0.26,0.07,0.5,0.19,0.7,0.36
						c0.21,0.17,0.4,0.4,0.58,0.7c0.18,0.3,0.37,0.67,0.56,1.11l3.8,8.02c0.22,0.49,0.44,0.96,0.66,1.43
						c0.22,0.47,0.42,0.94,0.63,1.41c0.2,0.47,0.4,0.93,0.59,1.38c0.19,0.45,0.38,0.9,0.56,1.36h0.01
						c-0.03-0.79-0.05-1.62-0.07-2.47c-0.02-0.86-0.02-1.68-0.02-2.46V3.48c0-0.11,0.03-0.21,0.09-0.31
						c0.06-0.09,0.16-0.17,0.3-0.24c0.14-0.07,0.33-0.12,0.56-0.14c0.23-0.03,0.53-0.04,0.89-0.04c0.34,0,0.63,0.01,0.86,0.04
						c0.23,0.03,0.41,0.08,0.54,0.14c0.13,0.07,0.21,0.15,0.26,0.24c0.05,0.09,0.08,0.19,0.08,0.31V23.2z"></path>
					<path class="st0" d="M142.96,16.44v7.71c0,0.11-0.03,0.21-0.1,0.3c-0.07,0.09-0.17,0.16-0.32,0.22
						c-0.15,0.06-0.35,0.1-0.61,0.14c-0.26,0.03-0.58,0.05-0.96,0.05c-0.39,0-0.71-0.02-0.97-0.05c-0.25-0.03-0.46-0.08-0.61-0.14
						c-0.16-0.06-0.26-0.13-0.32-0.22c-0.06-0.09-0.09-0.19-0.09-0.3v-7.71l-5.34-11.95c-0.19-0.42-0.31-0.74-0.37-0.97
						c-0.06-0.23-0.03-0.41,0.09-0.53c0.12-0.12,0.33-0.19,0.64-0.22c0.31-0.03,0.74-0.04,1.3-0.04c0.46,0,0.83,0.01,1.11,0.03
						c0.28,0.02,0.5,0.07,0.66,0.13c0.16,0.06,0.28,0.14,0.35,0.25c0.08,0.1,0.15,0.23,0.22,0.39l2.17,5.39
						c0.21,0.52,0.42,1.07,0.63,1.64c0.21,0.58,0.42,1.18,0.63,1.81h0.03c0.19-0.61,0.39-1.2,0.59-1.78c0.2-0.58,0.4-1.12,0.59-1.65
						l2.14-5.36c0.05-0.18,0.11-0.32,0.19-0.43c0.08-0.11,0.19-0.19,0.34-0.26c0.15-0.07,0.36-0.11,0.62-0.14
						c0.26-0.02,0.61-0.03,1.04-0.03c0.57,0,1.02,0.01,1.34,0.04c0.32,0.03,0.53,0.1,0.65,0.22c0.12,0.12,0.14,0.3,0.08,0.53
						c-0.06,0.24-0.18,0.56-0.36,0.97L142.96,16.44z"></path>
					<path class="st0" d="M163.72,23.1c0.12,0.41,0.2,0.73,0.23,0.97c0.03,0.24-0.01,0.41-0.12,0.53c-0.11,0.12-0.31,0.19-0.59,0.22
						c-0.28,0.03-0.67,0.04-1.16,0.04c-0.51,0-0.91-0.01-1.2-0.03c-0.29-0.02-0.51-0.05-0.66-0.1c-0.15-0.05-0.26-0.12-0.32-0.21
						c-0.06-0.09-0.11-0.21-0.15-0.36l-1.31-4.41h-7.33l-1.24,4.29c-0.04,0.16-0.09,0.29-0.16,0.4c-0.07,0.11-0.17,0.19-0.32,0.25
						c-0.15,0.06-0.35,0.1-0.62,0.13c-0.27,0.02-0.62,0.03-1.05,0.03c-0.46,0-0.83-0.02-1.09-0.05c-0.26-0.03-0.44-0.12-0.54-0.25
						c-0.1-0.13-0.14-0.31-0.11-0.55c0.03-0.24,0.11-0.55,0.23-0.95l6.02-19.46c0.06-0.19,0.13-0.35,0.21-0.47
						c0.08-0.12,0.21-0.21,0.38-0.27c0.18-0.06,0.42-0.1,0.73-0.12c0.31-0.02,0.72-0.03,1.24-0.03c0.59,0,1.07,0.01,1.42,0.03
						c0.35,0.02,0.63,0.06,0.82,0.12c0.2,0.06,0.34,0.16,0.42,0.28c0.09,0.12,0.16,0.29,0.22,0.51L163.72,23.1z M154.76,7.01h-0.02
						l-2.76,9.33h5.54L154.76,7.01z"></path>
					<path class="st0" d="M181.62,23.2c0,0.26-0.04,0.49-0.12,0.7c-0.08,0.2-0.19,0.37-0.32,0.51c-0.14,0.14-0.3,0.23-0.48,0.3
						s-0.37,0.09-0.57,0.09h-1.69c-0.35,0-0.66-0.04-0.91-0.12c-0.26-0.08-0.49-0.22-0.71-0.43c-0.22-0.21-0.42-0.49-0.63-0.85
						c-0.2-0.36-0.43-0.82-0.68-1.38l-4.86-10.26c-0.28-0.61-0.57-1.27-0.86-1.98c-0.29-0.71-0.55-1.39-0.79-2.06h-0.03
						c0.04,0.81,0.07,1.63,0.09,2.43c0.02,0.81,0.03,1.64,0.03,2.5v11.48c0,0.11-0.03,0.21-0.08,0.31
						c-0.06,0.09-0.15,0.17-0.29,0.23c-0.14,0.06-0.32,0.11-0.55,0.14c-0.23,0.03-0.53,0.05-0.89,0.05c-0.35,0-0.64-0.02-0.88-0.05
						c-0.23-0.03-0.41-0.08-0.54-0.14c-0.13-0.06-0.22-0.14-0.27-0.23c-0.05-0.09-0.08-0.19-0.08-0.31V4.41
						c0-0.53,0.14-0.93,0.41-1.2c0.28-0.26,0.62-0.4,1.02-0.4h2.13c0.38,0,0.7,0.04,0.97,0.11c0.26,0.07,0.5,0.19,0.7,0.36
						c0.21,0.17,0.4,0.4,0.58,0.7c0.18,0.3,0.37,0.67,0.56,1.11l3.8,8.02c0.22,0.49,0.44,0.96,0.66,1.43
						c0.22,0.47,0.42,0.94,0.63,1.41c0.2,0.47,0.4,0.93,0.59,1.38c0.19,0.45,0.38,0.9,0.56,1.36h0.02
						c-0.03-0.79-0.05-1.62-0.07-2.47c-0.02-0.86-0.02-1.68-0.02-2.46V3.48c0-0.11,0.03-0.21,0.09-0.31
						c0.06-0.09,0.16-0.17,0.3-0.24c0.14-0.07,0.33-0.12,0.56-0.14c0.23-0.03,0.53-0.04,0.89-0.04c0.34,0,0.63,0.01,0.86,0.04
						c0.23,0.03,0.41,0.08,0.54,0.14c0.13,0.07,0.21,0.15,0.26,0.24c0.05,0.09,0.08,0.19,0.08,0.31V23.2z"></path>
					<path class="st0" d="M200,6.23c0,0.33-0.01,0.61-0.04,0.85c-0.03,0.24-0.06,0.43-0.11,0.57c-0.04,0.14-0.1,0.24-0.17,0.3
						c-0.07,0.06-0.14,0.09-0.23,0.09c-0.13,0-0.34-0.1-0.63-0.3c-0.29-0.2-0.68-0.42-1.16-0.66c-0.48-0.24-1.06-0.46-1.73-0.66
						c-0.67-0.2-1.45-0.3-2.33-0.3c-0.95,0-1.8,0.18-2.57,0.55c-0.76,0.37-1.42,0.89-1.96,1.56c-0.54,0.67-0.96,1.48-1.25,2.43
						c-0.29,0.94-0.44,1.99-0.44,3.13c0,1.25,0.15,2.36,0.45,3.31c0.3,0.96,0.71,1.76,1.24,2.4c0.53,0.64,1.17,1.13,1.92,1.46
						c0.75,0.33,1.58,0.49,2.48,0.49c0.44,0,0.88-0.06,1.31-0.17c0.43-0.11,0.83-0.28,1.21-0.51v-5.09h-3.7
						c-0.18,0-0.32-0.13-0.42-0.38c-0.1-0.25-0.15-0.69-0.15-1.3c0-0.32,0.01-0.58,0.04-0.8c0.02-0.21,0.06-0.39,0.11-0.52
						c0.05-0.13,0.11-0.23,0.18-0.29c0.07-0.06,0.15-0.09,0.24-0.09h6.59c0.16,0,0.3,0.03,0.43,0.09c0.13,0.06,0.24,0.16,0.33,0.28
						c0.1,0.12,0.17,0.27,0.22,0.45c0.05,0.18,0.08,0.38,0.08,0.6v8.73c0,0.34-0.05,0.64-0.16,0.89c-0.11,0.25-0.32,0.46-0.65,0.6
						c-0.33,0.15-0.73,0.3-1.22,0.46c-0.48,0.16-0.98,0.29-1.5,0.41c-0.52,0.11-1.04,0.2-1.57,0.25c-0.53,0.06-1.06,0.09-1.59,0.09
						c-1.56,0-2.95-0.25-4.19-0.75c-1.23-0.5-2.28-1.23-3.13-2.19c-0.86-0.96-1.51-2.12-1.96-3.49c-0.45-1.37-0.68-2.93-0.68-4.67
						c0-1.8,0.24-3.41,0.72-4.84c0.48-1.43,1.17-2.64,2.05-3.65c0.88-1,1.95-1.77,3.21-2.3c1.25-0.53,2.65-0.8,4.19-0.8
						c0.85,0,1.61,0.07,2.31,0.19c0.69,0.13,1.3,0.29,1.82,0.47c0.52,0.19,0.95,0.39,1.29,0.6c0.34,0.22,0.58,0.4,0.72,0.56
						c0.14,0.16,0.23,0.38,0.29,0.67C199.97,5.24,200,5.66,200,6.23z"></path>
				</g>
			</g>
		</g>
	</g>
	<g>
		<polygon class="st2" points="52.37,4.14 48.74,3.91 38.9,16.15 28.41,2.67 17.22,2.67 17.22,4.18 20.2,4.18 32.9,20.52 
			32.9,30.73 11.15,2.67 0.02,2.67 0.02,4.18 2.97,4.18 3.01,4.18 3.01,34.78 0,34.78 0,36.28 8.97,36.28 8.97,34.78 6,34.78 
			6,8.03 27.86,36.28 40.37,36.29 40.37,19.08"></polygon>
		<path class="st1" d="M71.09,12.44c0-7.65-8.41-9.68-14.36-9.77l0,0h-0.15c-0.08,0-0.16,0-0.24,0h-11.8v1.51h11.51
			c2.11,0.21,4.69,1.45,6.2,3.66c0.84,1.24,1.38,2.73,1.36,4.63c-0.05,5.36-4.73,8.29-8.6,8.11h-7.16v0.3h-0.01V36.3h10.46v-1.5
			h-2.99V22.07C62.55,21.78,71.08,20.09,71.09,12.44z"></path>
	</g>
</g>
</svg>
